Coordinates
version=1
nRows=5
nColumns=63
inDegrees=yes

Units are S.I. units (second, meters, Newtons, ...)
If the header above contains a line with 'inDegrees', this indicates whether rotational values are in degrees (yes) or radians (no).

endheader
time	pelvis_tilt	pelvis_list	pelvis_rotation	pelvis_tx	pelvis_ty	pelvis_tz	hip_flexion_r	hip_adduction_r	hip_rotation_r	knee_angle_r	knee_angle_r_beta	ankle_angle_r	subtalar_angle_r	mtp_angle_r	hip_flexion_l	hip_adduction_l	hip_rotation_l	knee_angle_l	knee_angle_l_beta	ankle_angle_l	subtalar_angle_l	mtp_angle_l	L5_S1_Flex_Ext	L5_S1_Lat_Bending	L5_S1_axial_rotation	L4_L5_Flex_Ext	L4_L5_Lat_Bending	L4_L5_axial_rotation	L3_L4_Flex_Ext	L3_L4_Lat_Bending	L3_L4_axial_rotation	L2_L3_Flex_Ext	L2_L3_Lat_Bending	L2_L3_axial_rotation	L1_L2_Flex_Ext	L1_L2_Lat_Bending	L1_L2_axial_rotation	L1_T12_Flex_Ext	L1_T12_Lat_Bending	L1_T12_axial_rotation	Abs_r3	Abs_r2	Abs_r1	Abs_t1	Abs_t2	neck_flexion	neck_bending	neck_rotation	arm_flex_r	arm_add_r	arm_rot_r	elbow_flex_r	pro_sup_r	wrist_flex_r	wrist_dev_r	arm_flex_l	arm_add_l	arm_rot_l	elbow_flex_l	pro_sup_l	wrist_flex_l	wrist_dev_l
      6.25000000	     -7.00793090	     -5.28918698	     93.69981112	      0.18367838	      1.11216754	      0.48849642	     15.33794660	     -6.26562691	      2.61205958	     24.52265956	      0.42800115	     25.97448921	     -2.41156147	      0.00000000	     12.56058449	      5.06325101	     -8.96174535	     17.88844816	      0.31221232	     19.73477963	      2.63328830	      0.00000000	     -0.07619463	     -1.52020146	      0.71242506	     -0.14150104	     -2.02186794	      0.75695163	     -0.12518015	     -3.69621783	      0.75695163	     -0.08708284	     -3.69621783	      0.62337193	     -0.07075433	     -3.09999481	      0.57884536	     -0.04353761	     -2.35479206	      0.53431880	     -0.54425059	    -17.19682294	      3.96229447	      0.00000000	      0.00000000	     16.58506141	     18.02610121	    -41.50608758	    204.97708905	   -169.01800915	    237.76319804	     81.41313923	     89.26818073	     -3.10457854	     24.00184376	     13.31661937	    -17.39076037	    126.92813093	     10.47487454	      4.79335336	    -10.24798518	    -19.78323163
      6.26666667	     -6.54024923	     -5.64821088	     93.80374056	      0.18334739	      1.11138274	      0.48926798	     15.62836081	     -5.78043540	      2.71701795	     24.25790688	      0.42338034	     25.59239332	     -2.84823264	      0.00000000	     13.19945759	      4.57662292	     -8.90199387	     18.28728936	      0.31917341	     20.06605136	      2.58461574	      0.00000000	     -0.04132140	     -1.48153498	      0.75790532	     -0.07673797	     -1.97044153	      0.80527441	     -0.06788692	     -3.60220415	      0.80527441	     -0.04722623	     -3.60220415	      0.66316716	     -0.03837105	     -3.02114613	      0.61579808	     -0.02361105	     -2.29489769	      0.56842899	     -0.29515461	    -16.75942002	      4.21524204	      0.00000000	      0.00000000	     16.73737989	     18.21254338	    -40.79654389	    202.96090396	   -168.52830723	    236.61079540	     80.56956588	     89.25143847	     -0.44046037	     25.38330832	     13.76117251	    -17.49200046	    126.60187412	     11.22524557	      5.12134012	    -10.32418055	    -20.01096584
      6.28333333	     -6.24812234	     -5.98306502	     93.90971404	      0.18302098	      1.11071591	      0.48999092	     15.95930040	     -5.44060289	      3.03104639	     24.14968272	      0.42149148	     25.20419808	     -3.60279020	      0.00000000	     13.71417522	      4.29835779	     -8.79619865	     18.49384088	      0.32277841	     20.45340191	      2.68073611	      0.00000000	     -0.03211932	     -1.46477501	      0.82237675	     -0.05964880	     -1.94815076	      0.87377530	     -0.05276884	     -3.56145395	      0.87377530	     -0.03670918	     -3.56145395	      0.71957966	     -0.02982600	     -2.98696919	      0.66818111	     -0.01835298	     -2.26893648	      0.61678257	     -0.22942512	    -16.56982782	      4.57381280	      0.00000000	      0.00000000	     17.28805307	     17.85409965	    -40.85077889	    200.54000896	   -168.48409245	    233.63971831	     79.73129748	     89.20145532	      4.59446291	     27.52880197	     14.18154441	    -17.47482598	    126.22451319	     11.60961005	      5.80558014	    -10.70616735	    -19.89279889
      6.30000000	     -6.13999266	     -6.13408979	     93.81415751	      0.18308189	      1.11050233	      0.49099153	     16.12686553	     -5.32154895	      3.12715086	     24.00038170	      0.41888568	     24.99895974	     -3.57822953	      0.00000000	     13.91712506	      4.19720491	     -8.71358566	     18.42480202	      0.32157346	     20.94461830	      2.67669403	      0.00000000	     -0.05152950	     -1.46505707	      0.82516917	     -0.09569543	     -1.94852590	      0.87674225	     -0.08465781	     -3.56213976	      0.87674225	     -0.05889306	     -3.56213976	      0.72202303	     -0.04785029	     -2.98754438	      0.67044995	     -0.02944395	     -2.26937340	      0.61887688	     -0.36807003	    -16.57301859	      4.58934339	      0.00000000	      0.00000000	     17.65115641	     17.37532977	    -40.54241851	    199.38212632	   -168.35188446	    232.88342502	     78.73348176	     88.99956737	      4.91641484	     27.66033651	     14.33396654	    -17.49165695	    126.18471485	     11.53738067	      5.90203799	    -10.76460787	    -19.88685908
      6.31666667	     -5.93781101	     -6.50952966	     93.89751380	      0.18252193	      1.10979391	      0.49103516	     16.44501227	     -5.08512189	      3.52197832	     23.86611027	      0.41654220	     24.94375459	     -4.18700262	      0.00000000	     14.38500426	      4.00678476	     -8.87716823	     18.51798629	      0.32319983	     21.51439809	      3.17330773	      0.00000000	     -0.02730134	     -1.45871376	      0.99278317	     -0.05070132	     -1.94008931	      1.05483211	     -0.04485337	     -3.54671665	      1.05483211	     -0.03120270	     -3.54671665	      0.86868527	     -0.02535203	     -2.97460911	      0.80663632	     -0.01559999	     -2.25954762	      0.74458737	     -0.19501075	    -16.50126184	      5.52156213	      0.00000000	      0.00000000	     17.99588364	     16.83898828	    -41.11346577	    196.00004292	   -168.35249829	    227.98031363	     78.29583985	     88.79113105	      9.23372949	     28.07017912	     14.81823682	    -17.22730195	    126.58872255	     11.50945911	      6.91056292	    -11.07790322	    -19.42994949
